<svg xmlns="http://www.w3.org/2000/svg" xml:space="preserve" width="65" height="60" viewBox="0 0 17.198 15.875"><path d="m208.424 81.983 9.779 17.424c1.565 3.698-.999 8.235-.999 8.235l-30.128 52.453c-1.566 2.7-3.403 2.269-3.403 2.269h-20.986c-6.103 0-3.29-6.965-3.29-6.965l42.493-73.438c4.266-5.831 6.534.022 6.534.022zm-5.672 13.045L170.9 150.294s-1.702 3.835.862 4.538h6.942a4.742 4.742 0 0 0 3.403-2.269l27.36-47.643a4.152 4.152 0 0 0 .568-3.97l-3.676-6.67s-1.996-2.382-3.539.748zM251.076 81.96 293.57 155.4s2.814 6.965-3.29 6.965h-20.985s-1.838.431-3.403-2.269l-30.242-52.453s-2.564-4.537-.998-8.235l9.778-17.424s2.564-5.853 6.647-.022zm-4.537 12.342-3.676 6.67a4.152 4.152 0 0 0 .567 3.97l27.43 47.621a4.742 4.742 0 0 0 3.402 2.269h6.942c2.564-.703.863-4.538.863-4.538l-31.921-55.266c-1.543-3.13-3.54-.726-3.54-.726zM230.272 119.803l15.11 25.954c4.265 7.714-3.063 8.258-3.063 8.258h-32.533c-4.833-.272-2.7-7.033-2.7-7.033l16.335-27.746c3.607-4.538 6.851.567 6.851.567zm-5.014 11.207-6.806 11.684s-1.679 3.358 1.951 3.358h12.229s3.63-.295 1.315-4.084l-6.51-10.935a1.27 1.27 0 0 0-2.179-.022z" class="cls-2" style="fill:#b09043;stroke-width:2.26872" transform="matrix(.12695 0 0 .12695 -20.154 -7.409)"></path></svg>